HIERARCHY
ROOT Hips
{
	OFFSET 0.000000 0.000000 0.000000 
	CHANNELS 6 Xposition Yposition Zposition Yrotation Zrotation Xrotation 
	JOINT Lumbar
	{
		OFFSET 0.000000 0.000000 0.000000 
		CHANNELS 3 Zrotation Xrotation Yrotation
		JOINT Neck
		{
			OFFSET 0.000000 0.445665 0.000000 
			CHANNELS 3 Zrotation Xrotation Yrotation
			End Site
			{
				OFFSET 0.000000 0.227535 0.000000 
			}
		}
		JOINT RightShoulder
		{
			OFFSET 0.019635 0.377685 0.194865 
			CHANNELS 3 Zrotation Xrotation Yrotation
			JOINT RightElbow
			{
				OFFSET 0.000000 -0.243375 0.000000 
				CHANNELS 2 Zrotation Yrotation
				JOINT RightWrist
				{
					OFFSET 0.000000 -0.264825 0.000000 
					CHANNELS 2 Zrotation Xrotation
					End Site
					{
						OFFSET 0.006600 -0.176220 0.000990 
					}
				}
			}
		}
		JOINT LeftShoulder
		{
			OFFSET 0.019635 0.377685 -0.194865 
			CHANNELS 3 Zrotation Xrotation Yrotation
			JOINT LeftElbow
			{
				OFFSET 0.000000 -0.243375 0.000000 
				CHANNELS 2 Zrotation Yrotation
				JOINT LeftWrist
				{
					OFFSET 0.000000 -0.264825 0.000000 
					CHANNELS 2 Zrotation Xrotation
					End Site
					{
						OFFSET 0.006600 -0.176220 -0.000990 
					}
				}
			}
		}
	}
	JOINT RightHip
	{
		OFFSET 0.052140 -0.069960 0.075570 
		CHANNELS 3 Zrotation Xrotation Yrotation
		JOINT RightKnee
		{
			OFFSET 0.000000 -0.402270 0.000000 
			CHANNELS 1 Zrotation
			JOINT RightAnkle
			{
				OFFSET 0.000000 -0.404085 0.000000 
				CHANNELS 3 Zrotation Xrotation Yrotation
				End Site
				{
					OFFSET 0.204105 -0.089430 0.008415 
				}
			}
		}
	}
	JOINT LeftHip
	{
		OFFSET 0.052140 -0.069960 -0.075570 
		CHANNELS 3 Zrotation Xrotation Yrotation
		JOINT LeftKnee
		{
			OFFSET 0.000000 -0.402270 0.000000 
			CHANNELS 1 Zrotation
			JOINT LeftAnkle
			{
				OFFSET 0.000000 -0.404085 0.000000 
				CHANNELS 3 Zrotation Xrotation Yrotation
				End Site
				{
					OFFSET 0.204105 -0.089430 -0.008415 
				}
			}
		}
	}
}
MOTION
Frames: 32
Frame Time: 0.02
0 0.95578 0 177.7869 0 3.51082 8.49591 -1.48255 0.00302 -34.36998 2.02795 2.75521 24.23765 -12.84538 -2.06496 10.007 81.84786 -0.50789 1.23081 26.00377 5.2812 -2.51482 7.61437 -76.11587 -6.57386 0.7018 2.82473 2.6755 16.82656 -20.75427 10.83375 -9.65819 -12.2375 1.04468 -5.63065 -7.96569 -14.79521 7.61123 7.72733 12.79504
-5e-05 0.95577 -0.00029 177.74108 0 3.50986 8.48974 -1.48422 -0.00842 -34.2556 2.0761 2.73283 24.12943 -12.87806 -2.03399 10.01039 81.76855 -0.48973 1.24776 25.89316 5.25952 -2.5702 7.61362 -76.13599 -6.56579 0.71487 2.83087 2.68493 16.79755 -20.76255 10.85083 -9.65183 -12.17358 1.04497 -5.61568 -7.9426 -14.81735 7.62195 7.73387 12.81016
-0.0001 0.95575 -0.00059 177.69521 0 3.50888 8.48366 -1.48592 -0.0198 -34.14165 2.12394 2.71053 24.02154 -12.91054 -2.00241 10.01395 81.68966 -0.4718 1.26453 25.78248 5.23827 -2.62768 7.61348 -76.15641 -6.55823 0.72783 2.83694 2.69443 16.76894 -20.77078 10.86776 -9.64547 -12.11002 1.04522 -5.60066 -7.91914 -14.83947 7.63272 7.74041 12.82496
-0.00016 0.95573 -0.00088 177.64889 0 3.50777 8.4778 -1.48768 -0.03118 -34.02834 2.17121 2.68856 23.91444 -12.94287 -1.96821 10.01786 81.61178 -0.45452 1.281 25.67162 5.21791 -2.69061 7.61464 -76.17882 -6.55197 0.7402 2.84286 2.70421 16.74146 -20.77878 10.88422 -9.63904 -12.04712 1.04549 -5.5852 -7.89359 -14.86186 7.64375 7.74695 12.83817
-0.0002 0.95571 -0.00117 177.60521 0 3.50731 8.47065 -1.48904 -0.0427 -33.91165 2.22175 2.66509 23.80373 -12.97635 -1.948 10.01946 81.52871 -0.43369 1.29934 25.56308 5.19209 -2.72057 7.60761 -76.19139 -6.53809 0.75537 2.84967 2.71238 16.70775 -20.78783 10.9031 -9.63295 -11.98056 1.04582 -5.57196 -7.87869 -14.88295 7.65341 7.75346 12.85922
-0.00027 0.9557 -0.00147 177.55582 0 3.50552 8.46635 -1.49131 -0.05381 -33.80221 2.26513 2.64466 23.70041 -13.00712 -1.89814 10.02625 81.45657 -0.42043 1.3135 25.44882 5.17837 -2.82301 7.61879 -76.2243 -6.5408 0.76484 2.85455 2.72402 16.68742 -20.79476 10.91691 -9.6262 -11.92189 1.0459 -5.5541 -7.84157 -14.9067 7.66595 7.76005 12.86408
-0.00037 0.9557 -0.00182 177.49003 0 3.49953 8.4692 -1.49573 -0.06495 -33.71159 2.29094 2.63381 23.61913 -13.03316 -1.76293 10.04528 81.41477 -0.42818 1.31819 25.3236 5.19403 -3.11107 7.67437 -76.32019 -6.58679 0.75593 2.85421 2.74546 16.7033 -20.79472 10.9162 -9.61707 -11.88332 1.04648 -5.5222 -7.73697 -14.93936 7.68709 7.76675 12.81916
-0.00049 0.95571 -0.00219 177.41855 0 3.49228 8.47523 -1.50113 -0.07545 -33.62903 2.30919 2.62589 23.54552 -13.05608 -1.59848 10.06977 81.38386 -0.44346 1.31843 25.19222 5.22249 -3.47426 7.74917 -76.43532 -6.64976 0.74152 2.85187 2.7704 16.73278 -20.7927 10.9105 -9.60739 -11.85295 1.0466 -5.48582 -7.61084 -14.9745 7.7111 7.7736 12.75866
-0.00061 0.95572 -0.00255 177.34992 0 3.48596 8.48007 -1.50633 -0.08551 -33.54265 2.32947 2.61577 23.46645 -13.07855 -1.44923 10.09336 81.34791 -0.4554 1.31924 25.05949 5.24795 -3.81427 7.8195 -76.53752 -6.707 0.73156 2.85044 2.79364 16.7566 -20.79233 10.90741 -9.59829 -11.81992 1.04615 -5.45232 -7.4985 -15.00744 7.73335 7.78046 12.70868
-0.00071 0.95573 -0.00291 177.27999 0 3.47817 8.48317 -1.51052 -0.0987 -33.4544 2.35554 2.609 23.39322 -13.10852 -1.29107 10.11099 81.31267 -0.46745 1.32568 24.9416 5.26218 -4.11225 7.87312 -76.65798 -6.75697 0.7142 2.84921 2.81734 16.77843 -20.78891 10.90279 -9.58772 -11.7825 1.04895 -5.41535 -7.36965 -15.04467 7.75731 7.7869 12.64471
-0.00086 0.95573 -0.00327 177.21166 0 3.47309 8.49146 -1.517 -0.10515 -33.37516 2.36794 2.59634 23.31279 -13.12259 -1.14561 10.14144 81.27815 -0.48051 1.31994 24.79473 5.30202 -4.51023 7.96448 -76.74422 -6.82473 0.70991 2.84685 2.8409 16.80735 -20.79124 10.90029 -9.5802 -11.75604 1.0449 -5.38445 -7.2696 -15.07386 7.77868 7.79434 12.60554
-0.00111 0.95573 -0.00362 177.14715 0 3.47637 8.50616 -1.53009 -0.09411 -33.29131 2.34278 2.56332 23.18454 -13.08973 -1.03396 10.21326 81.2465 -0.49952 1.27657 24.54093 5.41663 -5.21149 8.16934 -76.73801 -6.94924 0.75225 2.84374 2.86329 16.85485 -20.81106 10.90379 -9.58019 -11.75878 1.0217 -5.37233 -7.25819 -15.07729 7.78976 7.80356 12.64356
-0.00142 0.95572 -0.00397 177.08495 0 3.48235 8.52715 -1.5454 -0.07627 -33.22138 2.30441 2.52486 23.05416 -13.0417 -0.9384 10.29633 81.21477 -0.51855 1.22213 24.2639 5.55535 -6.0017 8.40889 -76.6956 -7.08883 0.80638 2.83923 2.88537 16.90845 -20.8365 10.90979 -9.58345 -11.77208 0.99166 -5.36629 -7.27574 -15.07289 7.79855 7.81388 12.70592
-0.00172 0.95571 -0.00432 177.0228 0 3.4867 8.55015 -1.55933 -0.06077 -33.16308 2.27324 2.49116 22.94123 -13.00311 -0.84002 10.36953 81.18045 -0.5341 1.17595 24.01565 5.67817 -6.72211 8.62344 -76.66514 -7.21386 0.84884 2.83408 2.90758 16.95786 -20.85866 10.91533 -9.5859 -11.77989 0.96505 -5.35692 -7.2776 -15.07426 7.81005 7.82441 12.75421
-0.00195 0.95571 -0.00467 176.95522 0 3.4926 8.55336 -1.57471 -0.04791 -33.02919 2.23691 2.44806 22.7569 -12.95362 -0.7186 10.4633 81.1566 -0.56384 1.1156 23.68857 5.82182 -7.57165 8.87777 -76.65374 -7.3722 0.91704 2.83416 2.93008 17.01424 -20.88395 10.91785 -9.58553 -11.79088 0.93721 -5.3499 -7.28961 -15.06722 7.81481 7.83224 12.8156
-0.00232 0.95569 -0.00501 176.90027 0 3.49607 8.59844 -1.58778 -0.02858 -33.05603 2.20807 2.42302 22.72327 -12.92331 -0.65318 10.51645 81.11204 -0.56481 1.08267 23.52236 5.92827 -8.16926 9.05706 -76.59458 -7.46431 0.93539 2.82315 2.95172 17.05674 -20.90391 10.92729 -9.59175 -11.79769 0.91012 -5.33934 -7.28736 -15.07475 7.83279 7.84557 12.8545
-0.00308 0.95561 -0.00532 176.87437 0 3.49115 8.76332 -1.59245 0.0123 -33.5204 2.2053 2.45096 23.08327 -12.94991 -0.70047 10.45968 80.99949 -0.47896 1.12327 23.78774 5.92093 -8.08066 9.02357 -76.4063 -7.37305 0.80653 2.7813 2.9722 17.0641 -20.90952 10.95524 -9.61598 -11.79015 0.88907 -5.31894 -7.24183 -15.13414 7.88949 7.87722 12.83568
-0.00395 0.9555 -0.00563 176.86257 0 3.48393 8.96828 -1.59509 0.05836 -34.14502 2.21027 2.49703 23.5986 -12.99662 -0.80699 10.36202 80.86798 -0.36556 1.19215 24.21901 5.87649 -7.73279 8.9138 -76.17285 -7.21508 0.62901 2.72872 2.99162 17.05598 -20.90941 10.98996 -9.64656 -11.77816 0.86912 -5.29459 -7.18098 -15.20717 7.95914 7.91369 12.79161
-0.00476 0.95541 -0.00594 176.84718 0 3.47845 9.15212 -1.59951 0.09865 -34.70004 2.21017 2.53344 24.05873 -13.03353 -0.91627 10.27803 80.75234 -0.26952 1.25213 24.58667 5.85199 -7.47829 8.8356 -75.96321 -7.08398 0.47737 2.68108 3.01073 17.05226 -20.91065 11.02169 -9.67389 -11.76817 0.84644 -5.27107 -7.12451 -15.26692 8.02189 7.94577 12.75226
-0.00564 0.95531 -0.00624 176.81803 0 3.47005 9.35159 -1.59999 0.154 -35.24816 2.21568 2.57515 24.45657 -13.07132 -0.91641 10.20959 80.60649 -0.15283 1.29768 24.90477 5.81417 -7.31567 8.76731 -75.73598 -6.96322 0.30764 2.632 3.03308 17.06135 -20.91681 11.05356 -9.7031 -11.75818 0.83068 -5.25161 -7.07784 -15.35414 8.08927 7.98736 12.7419
-0.00638 0.95522 -0.00656 176.82331 0 3.46724 9.52399 -1.60866 0.1786 -35.84068 2.21214 2.61083 25.01763 -13.11398 -1.13815 10.10592 80.51854 -0.07287 1.37682 25.36454 5.79645 -6.91715 8.66531 -75.53824 -6.81084 0.16714 2.58481 3.04856 17.03813 -20.912 11.0862 -9.72956 -11.74756 0.80368 -5.22297 -7.00937 -15.39018 8.14958 8.01002 12.66534
-0.00685 0.95514 -0.00692 176.90003 0 3.47944 9.64451 -1.63548 0.12145 -36.58202 2.1759 2.61921 26.01973 -13.14971 -2.12729 9.85907 80.60313 -0.10013 1.5683 26.18524 5.83103 -5.77302 8.44537 -75.4116 -6.54102 0.09102 2.53338 3.04443 16.94404 -20.87161 11.1237 -9.74932 -11.73095 0.72217 -5.16733 -6.86264 -15.25989 8.19202 7.98142 12.40806
-0.00713 0.95506 -0.00731 177.0152 0 3.49731 9.72952 -1.67109 0.03241 -37.34902 2.13106 2.62144 27.17462 -13.19197 -3.30709 9.59142 80.74762 -0.16644 1.78625 27.14031 5.88978 -4.42873 8.20467 -75.32384 -6.25341 0.05098 2.48647 3.03365 16.81431 -20.82127 11.16084 -9.76551 -11.71444 0.63436 -5.10305 -6.69902 -15.08269 8.2262 7.93329 12.08582
-0.00739 0.95499 -0.00769 177.12533 0 3.51349 9.81031 -1.70647 -0.04511 -38.06282 2.09454 2.63138 28.24206 -13.2423 -4.28613 9.36631 80.85629 -0.21426 1.97661 28.0281 5.94475 -3.27986 7.99862 -75.22806 -6.00037 0.01319 2.44542 3.02645 16.69247 -20.78025 11.19538 -9.78185 -11.70181 0.56378 -5.0444 -6.55653 -14.93991 8.26078 7.89251 11.79571
-0.00811 0.9549 -0.00803 177.18131 0 3.52674 9.98155 -1.72765 -0.11031 -38.96251 2.04124 2.62379 29.39443 -13.24938 -5.74285 8.9884 80.99046 -0.26026 2.23963 28.9507 5.96594 -1.68378 7.67297 -75.07571 -5.62038 -0.10404 2.37059 3.01669 16.60891 -20.7201 11.24214 -9.80507 -11.67399 0.4297 -4.97838 -6.35428 -14.7382 8.30918 7.85787 11.49314
-0.00783 0.95485 -0.00848 177.36172 0 3.54636 9.95154 -1.77832 -0.2083 -39.47283 2.01874 2.64778 30.39981 -13.3445 -6.2569 8.93901 81.09869 -0.32468 2.34971 29.82706 6.06631 -0.97151 7.60563 -75.06889 -5.51756 -0.04784 2.36732 3.01093 16.43267 -20.69586 11.26288 -9.81248 -11.67595 0.42999 -4.92576 -6.27575 -14.65305 8.32767 7.80633 11.20216
-0.00496 0.95492 -0.00919 177.85412 0 3.59119 9.40801 -1.92654 -0.39279 -38.9557 2.10086 2.78821 30.99604 -13.71103 -4.05628 9.6863 81.00962 -0.38798 2.09865 30.56965 6.35795 -2.7781 8.15443 -75.29328 -6.04214 0.48859 2.56039 3.01621 16.04921 -20.78689 11.21515 -9.7817 -11.77765 0.7729 -4.91173 -6.51453 -14.85856 8.25715 7.70779 10.95274
-0.00108 0.95503 -0.01002 178.47507 0 3.64028 8.65709 -2.10029 -0.60813 -38.0364 2.21108 2.95544 31.43034 -14.16127 -0.91416 10.79309 80.91155 -0.47659 1.68239 31.25373 6.73305 -5.4751 8.98999 -75.68718 -6.86965 1.19605 2.82511 3.02635 15.56645 -20.9116 11.14051 -9.73429 -11.90665 1.25739 -4.91137 -6.88219 -15.19168 8.15857 7.5939 10.71839
0.00241 0.95513 -0.01081 179.05091 0 3.68192 7.97845 -2.25093 -0.80736 -37.26313 2.29687 3.09201 31.91762 -14.55219 1.75702 11.80319 80.89261 -0.58151 1.29422 31.94807 7.08363 -7.74871 9.75328 -76.1169 -7.65663 1.81957 3.05755 3.035 15.10282 -21.0123 11.07615 -9.69135 -12.01097 1.69601 -4.90544 -7.21159 -15.49332 8.07799 7.49028 10.48167
0.00561 0.95524 -0.01156 179.56954 0 3.74829 7.38976 -2.45227 -1.01799 -36.63996 2.43122 3.30605 32.50384 -15.02901 4.61124 12.50482 80.56574 -0.57017 1.09555 32.72229 7.37663 -10.10147 10.24358 -76.09584 -8.04738 2.47306 3.29013 3.0392 14.74713 -21.15052 11.02045 -9.66108 -12.16473 2.0542 -4.89752 -7.46119 -15.67822 7.97397 7.37183 10.22443
0.00966 0.95531 -0.01242 180.24032 0 3.76254 6.56693 -2.5517 -1.20996 -35.61582 2.47165 3.36561 32.83539 -15.3519 7.30039 13.96742 80.86879 -0.80674 0.47492 33.30678 7.81131 -12.49442 11.4049 -77.02293 -9.31736 3.10113 3.53792 3.05539 14.1442 -21.2173 10.93979 -9.60085 -12.22495 2.61643 -4.89583 -7.89961 -16.14117 7.9135 7.28121 10.01351
0.01587 0.95531 -0.01356 181.2739 0 3.64578 5.13136 -2.38373 -1.35862 -33.51861 2.24259 2.98901 32.57575 -15.18425 9.39096 17.15699 82.9872 -1.72074 -1.37721 33.44858 8.59562 -14.86084 14.05137 -80.79271 -13.09942 3.64441 3.82278 3.09002 12.87742 -21.09141 10.80154 -9.45931 -11.99495 3.68203 -4.9192 -8.89645 -17.30364 7.96772 7.2684 9.93649
